<svg width="45" height="44" viewBox="0 0 45 44" fill="none" xmlns="http://www.w3.org/2000/svg">
<circle cx="14.4375" cy="14.4375" r="14.4375" transform="matrix(-1 0 0 1 36.5502 7.5625)" fill="url(#paint0_radial_1556_86)"/>
<g clip-path="url(#clip0_1556_86)">
<circle cx="5.5" cy="5.5" r="5.5" transform="matrix(-1 0 0 1 27.6127 16.5)" fill="white"/>
<circle cx="4" cy="4" r="4" transform="matrix(-1 0 0 1 26.1127 18)" fill="black"/>
</g>
<path d="M32.8281 26.7815C32.828 26.7812 32.8279 26.7809 32.8279 26.7806L32.8194 26.7438C32.7154 26.293 32.6251 25.9019 32.516 25.6194C32.4095 25.3436 32.2117 24.9738 31.7728 24.8937C31.3339 24.8135 31.0182 25.0896 30.8211 25.3099C30.6191 25.5356 30.3965 25.8696 30.1399 26.2545L30.1184 26.2868L28.6863 28.4349C28.6566 28.4794 28.6421 28.5011 28.6309 28.5165C28.6307 28.5169 28.6304 28.5172 28.6302 28.5175C28.6299 28.5177 28.6296 28.5179 28.6292 28.5182C28.6139 28.5293 28.5922 28.5439 28.5476 28.5736L26.3995 30.0057L26.3672 30.0272C25.9823 30.2838 25.6483 30.5064 25.4226 30.7083C25.2023 30.9054 24.9263 31.2212 25.0064 31.6601C25.0865 32.0989 25.4563 32.2967 25.7321 32.4033C26.0146 32.5124 26.4057 32.6026 26.8565 32.7066L26.8942 32.7154L32.2697 33.9558C32.2811 33.9585 32.2926 33.9611 32.304 33.9637C32.6242 34.0377 32.9173 34.1054 33.1541 34.1242C33.4071 34.1444 33.7284 34.1212 33.9812 33.8684C34.2339 33.6157 34.2571 33.2944 34.2369 33.0414C34.2181 32.8046 34.1504 32.5115 34.0765 32.1912C34.0738 32.1798 34.0712 32.1684 34.0686 32.157L32.8281 26.7815Z" fill="black" stroke="black" stroke-linejoin="round"/>
<path d="M32.3821 33.4686L27.0067 32.2282C26.0404 32.0052 25.5573 31.8937 25.4983 31.5702C25.4392 31.2468 25.8518 30.9718 26.6768 30.4217L28.825 28.9896C28.9079 28.9343 28.9494 28.9067 28.9844 28.8717C29.0194 28.8367 29.047 28.7952 29.1023 28.7123L30.5344 26.5641C31.0845 25.739 31.3595 25.3265 31.683 25.3856C32.0064 25.4446 32.1179 25.9277 32.3409 26.8939L32.3409 26.8939L33.5814 32.2694C33.7428 32.9691 33.8236 33.3189 33.6276 33.5149C33.4317 33.7108 33.0818 33.6301 32.3821 33.4686Z" fill="white"/>
<path d="M11.0334 16.8545C11.0334 16.8548 11.0335 16.8551 11.0336 16.8554L11.0421 16.8922C11.1461 17.343 11.2363 17.7341 11.3454 18.0166C11.452 18.2924 11.6498 18.6622 12.0887 18.7423C12.5276 18.8225 12.8433 18.5464 13.0404 18.3261C13.2423 18.1004 13.465 17.7664 13.7215 17.3815L13.743 17.3493L15.1751 15.2011C15.2048 15.1566 15.2194 15.1349 15.2305 15.1195C15.2308 15.1192 15.231 15.1188 15.2312 15.1185C15.2316 15.1183 15.2319 15.1181 15.2322 15.1178C15.2476 15.1067 15.2693 15.0921 15.3138 15.0624L17.462 13.6303L17.4942 13.6088C17.8791 13.3523 18.2131 13.1296 18.4388 12.9277C18.6591 12.7306 18.9352 12.4148 18.855 11.976C18.7749 11.5371 18.4051 11.3393 18.1294 11.2327C17.8469 11.1236 17.4557 11.0334 17.005 10.9294L16.9672 10.9207L11.5918 9.68018C11.5803 9.67753 11.5689 9.6749 11.5575 9.67227C11.2373 9.59832 10.9442 9.53064 10.7074 9.51179C10.4544 9.49166 10.1331 9.51479 9.88028 9.76757C9.6275 10.0204 9.60437 10.3417 9.6245 10.5946C9.64335 10.8314 9.71103 11.1246 9.78498 11.4448C9.78761 11.4562 9.79024 11.4676 9.79289 11.4791L11.0334 16.8545Z" fill="black" stroke="black" stroke-linejoin="round"/>
<path d="M11.4793 10.1674L16.8548 11.4079C17.821 11.6308 18.3041 11.7423 18.3632 12.0658C18.4222 12.3892 18.0097 12.6643 17.1846 13.2143L15.0365 14.6464C14.9535 14.7017 14.9121 14.7293 14.8771 14.7643C14.842 14.7994 14.8144 14.8408 14.7591 14.9238L13.327 17.0719C12.777 17.897 12.5019 18.3095 12.1785 18.2505C11.855 18.1914 11.7435 17.7083 11.5206 16.7421L11.5206 16.7421L10.2801 11.3666C10.1186 10.6669 10.0379 10.3171 10.2338 10.1211C10.4298 9.92517 10.7796 10.0059 11.4793 10.1674Z" fill="white"/>
<defs>
<radialGradient id="paint0_radial_1556_86" cx="0" cy="0" r="1" gradientUnits="userSpaceOnUse" gradientTransform="translate(14.4375 14.4375) rotate(-90) scale(14.4375)">
<stop stop-color="white" stop-opacity="0"/>
<stop offset="0.62" stop-color="white" stop-opacity="0.02"/>
<stop offset="1" stop-color="white" stop-opacity="0.15"/>
</radialGradient>
<clipPath id="clip0_1556_86">
<rect width="11" height="11" fill="white" transform="translate(16.6127 16.5)"/>
</clipPath>
</defs>
</svg>
