<svg width="45" height="44" viewBox="0 0 45 44" fill="none" xmlns="http://www.w3.org/2000/svg">
<circle cx="14.4375" cy="14.4375" r="14.4375" transform="matrix(0 -1 -1 0 36.5502 36.4375)" fill="url(#paint0_radial_1556_106)"/>
<path d="M35.966 35.6501C37.012 34.3633 32.2727 27.5352 27.8394 22.1017C25.3454 19.045 20.7067 15.4181 18.1776 18.4458C15.6612 21.4583 19.0813 25.1896 22.0927 27.7072C27.6482 32.3516 34.5569 37.3835 35.966 35.6501Z" fill="white"/>
<path d="M27.8394 22.1017L27.2583 22.5758L27.8394 22.1017ZM35.966 35.6501L36.548 36.1232V36.1232L35.966 35.6501ZM22.0927 27.7072L22.5738 27.1318L22.0927 27.7072ZM18.1776 18.4458L17.602 17.965H17.602L18.1776 18.4458ZM27.2583 22.5758C29.4642 25.2794 31.7371 28.3191 33.3233 30.8313C34.1191 32.0917 34.7242 33.1914 35.0657 34.0356C35.2375 34.4605 35.3273 34.7839 35.3542 35.01C35.3837 35.2577 35.3232 35.2518 35.384 35.177L36.548 36.1232C36.8703 35.7266 36.8905 35.2259 36.8437 34.8327C36.7943 34.4178 36.6508 33.9542 36.4562 33.4731C36.0647 32.5053 35.404 31.3171 34.5916 30.0305C32.9614 27.4486 30.6479 24.3574 28.4206 21.6275L27.2583 22.5758ZM35.384 35.177C35.3771 35.1855 35.3397 35.2373 35.1501 35.2482C34.9458 35.2599 34.6387 35.2161 34.2151 35.0796C33.3716 34.8077 32.2647 34.2353 30.9814 33.4341C28.4278 31.8399 25.3431 29.447 22.5738 27.1318L21.6117 28.2826C24.3978 30.6119 27.5451 33.0571 30.187 34.7065C31.5015 35.5272 32.7332 36.178 33.755 36.5073C34.2641 36.6713 34.7713 36.7724 35.2362 36.7457C35.7159 36.7182 36.2026 36.5481 36.548 36.1232L35.384 35.177ZM18.7532 18.9266C19.2496 18.3324 19.8167 18.0875 20.4378 18.0591C21.0902 18.0292 21.8521 18.2381 22.6813 18.6604C24.3427 19.5065 26.0485 21.0931 27.2583 22.5758L28.4206 21.6275C27.1363 20.0536 25.2758 18.2984 23.3621 17.3238C22.4037 16.8357 21.3759 16.5145 20.3692 16.5606C19.3313 16.6082 18.3702 17.0454 17.602 17.965L18.7532 18.9266ZM17.602 17.965C16.8603 18.8529 16.5374 19.8252 16.5544 20.8225C16.571 21.8004 16.9127 22.7515 17.4091 23.6308C18.3953 25.3776 20.0906 27.0109 21.6117 28.2826L22.5738 27.1318C21.0834 25.8858 19.5629 24.3947 18.7153 22.8933C18.2949 22.1486 18.0652 21.4447 18.0542 20.797C18.0435 20.1687 18.2367 19.5449 18.7532 18.9266L17.602 17.965Z" fill="black"/>
<defs>
<radialGradient id="paint0_radial_1556_106" cx="0" cy="0" r="1" gradientUnits="userSpaceOnUse" gradientTransform="translate(14.4375 14.4375) rotate(-90) scale(14.4375)">
<stop stop-color="white" stop-opacity="0"/>
<stop offset="0.62" stop-color="white" stop-opacity="0.02"/>
<stop offset="1" stop-color="white" stop-opacity="0.15"/>
</radialGradient>
</defs>
</svg>
