<svg width="45" height="44" viewBox="0 0 45 44" fill="none" xmlns="http://www.w3.org/2000/svg">
<circle cx="14.4375" cy="14.4375" r="14.4375" transform="matrix(0 -1 -1 0 36.5502 42.4375)" fill="url(#paint0_radial_1556_118)"/>
<path d="M20.1127 13C18.481 14.2238 18.946 18.5 19.1127 21C20.1127 26.5 26.1127 24.5 25.6127 17.5C32.6127 11.5 31.1127 8 28.1127 5.00001C15.1127 -5 7.61267 16 19.6127 12.5C24.6127 9 21.7444 11.7762 20.1127 13Z" fill="white"/>
<path d="M19.1127 21L18.3644 21.0499L18.3672 21.0923L18.3748 21.1342L19.1127 21ZM19.6127 12.5L19.8227 13.22L19.9414 13.1854L20.0428 13.1144L19.6127 12.5ZM28.1127 5.00001L28.643 4.46968L28.6086 4.43523L28.57 4.40554L28.1127 5.00001ZM25.6127 17.5L25.1246 16.9306L24.8377 17.1765L24.8646 17.5534L25.6127 17.5ZM19.861 20.9501C19.7756 19.6692 19.6231 18.035 19.6876 16.5541C19.7197 15.8168 19.8049 15.1583 19.9631 14.6298C20.1235 14.0941 20.3354 13.7705 20.5627 13.6L19.6627 12.4C19.0741 12.8414 18.7323 13.5112 18.5261 14.1996C18.3179 14.8953 18.2238 15.6915 18.189 16.4888C18.1198 18.0769 18.2831 19.8309 18.3644 21.0499L19.861 20.9501ZM20.5627 13.6C20.9913 13.2785 21.4937 12.861 21.9274 12.4712C22.3413 12.0992 22.7557 11.697 22.9574 11.418C23.0016 11.3568 23.093 11.226 23.1402 11.0621C23.1631 10.9826 23.2076 10.7894 23.1275 10.5649C23.028 10.286 22.8027 10.1319 22.6008 10.0753C22.4359 10.0291 22.2941 10.0465 22.2272 10.0575C22.1483 10.0706 22.0781 10.092 22.0239 10.1111C21.9151 10.1494 21.7991 10.2039 21.6833 10.2642C21.2257 10.5025 20.4307 11.0119 19.1826 11.8856L20.0428 13.1144C21.2947 12.2381 22.0161 11.7821 22.376 11.5947C22.4646 11.5486 22.5093 11.5305 22.5219 11.526C22.5283 11.5238 22.5091 11.5313 22.4718 11.5375C22.4466 11.5416 22.3371 11.5592 22.196 11.5196C22.1179 11.4977 22.0184 11.4549 21.9233 11.3729C21.8247 11.288 21.7549 11.1815 21.7148 11.069C21.6415 10.8637 21.6848 10.6957 21.6988 10.6471C21.7169 10.5843 21.739 10.5455 21.7425 10.5393C21.7483 10.5291 21.7495 10.5284 21.7417 10.5392C21.7036 10.592 21.6121 10.6973 21.4578 10.8526C21.3107 11.0007 21.1276 11.1732 20.9247 11.3556C20.5179 11.7212 20.0499 12.1096 19.6627 12.4L20.5627 13.6ZM19.4027 11.78C16.5447 12.6136 15.2199 11.9024 14.6956 11.0165C14.1061 10.0203 14.2088 8.34141 15.1417 6.67966C16.054 5.05457 17.67 3.63364 19.7715 3.17831C21.8528 2.72736 24.5386 3.19691 27.6554 5.59447L28.57 4.40554C25.1868 1.8031 22.0601 1.14765 19.4539 1.71232C16.8679 2.27262 14.9214 4.00794 13.8337 5.94536C12.7666 7.84611 12.4317 10.136 13.4047 11.7804C14.443 13.5351 16.6807 14.1364 19.8227 13.22L19.4027 11.78ZM27.5824 5.53034C29.0466 6.99458 29.9681 8.41549 29.8641 10.0782C29.7586 11.7672 28.5801 13.9687 25.1246 16.9306L26.1008 18.0695C29.6453 15.0313 31.2168 12.4828 31.3612 10.1718C31.5073 7.83451 30.1788 6.00542 28.643 4.46968L27.5824 5.53034ZM24.8646 17.5534C25.1019 20.8749 23.7869 22.739 22.6231 23.251C22.057 23.5001 21.5064 23.4558 21.0445 23.1392C20.5645 22.8102 20.0774 22.1132 19.8506 20.8658L18.3748 21.1342C18.648 22.6368 19.2859 23.7524 20.1965 24.3765C21.1252 25.013 22.2309 25.0624 23.2272 24.624C25.1885 23.761 26.6235 21.1252 26.3608 17.4466L24.8646 17.5534Z" fill="black"/>
<g clip-path="url(#clip0_1556_118)">
<circle cx="5.5" cy="5.5" r="5.5" transform="matrix(0 -1 -1 0 27.6127 34.5)" fill="black"/>
<circle cx="4" cy="4" r="4" transform="matrix(0 -1 -1 0 26.1127 33)" fill="white"/>
</g>
<defs>
<radialGradient id="paint0_radial_1556_118" cx="0" cy="0" r="1" gradientUnits="userSpaceOnUse" gradientTransform="translate(14.4375 14.4375) rotate(-90) scale(14.4375)">
<stop stop-color="white" stop-opacity="0"/>
<stop offset="0.62" stop-color="white" stop-opacity="0.02"/>
<stop offset="1" stop-color="white" stop-opacity="0.15"/>
</radialGradient>
<clipPath id="clip0_1556_118">
<rect width="11" height="11" fill="white" transform="matrix(0 1 -1 0 27.6127 23.5)"/>
</clipPath>
</defs>
</svg>
