<svg width="45" height="44" viewBox="0 0 45 44" fill="none" xmlns="http://www.w3.org/2000/svg">
<path d="M17.9168 10.77C17.9167 10.7702 17.9165 10.7705 17.9164 10.7707L17.8963 10.8028C17.6511 11.1951 17.4383 11.5355 17.3158 11.8124C17.1961 12.0827 17.0745 12.4841 17.3282 12.8511C17.5818 13.2181 18.0003 13.2462 18.2954 13.2297C18.5978 13.2129 18.9914 13.1342 19.445 13.0434L19.483 13.0358L22.0146 12.5295C22.0671 12.519 22.0928 12.514 22.1115 12.511C22.1119 12.5109 22.1123 12.5109 22.1127 12.5108C22.1131 12.5109 22.1135 12.5109 22.1139 12.511C22.1326 12.514 22.1583 12.519 22.2108 12.5295L24.7424 13.0358L24.7804 13.0434C25.234 13.1342 25.6276 13.2129 25.93 13.2297C26.2251 13.2462 26.6436 13.2181 26.8972 12.8511C27.1509 12.4841 27.0293 12.0827 26.9096 11.8124C26.7871 11.5355 26.5743 11.1951 26.3291 10.8028L26.3086 10.77L23.3847 6.0918C23.3785 6.08183 23.3723 6.07189 23.3661 6.06198C23.1919 5.78325 23.0325 5.52813 22.8784 5.34736C22.7137 5.15424 22.4702 4.9434 22.1127 4.9434C21.7552 4.9434 21.5117 5.15424 21.347 5.34736C21.1929 5.52813 21.0335 5.78325 20.8593 6.06197C20.8531 6.07188 20.8469 6.08183 20.8407 6.0918L17.9168 10.77Z" fill="black" stroke="black" stroke-linejoin="round"/>
<path d="M22.9607 6.3568L25.8846 11.035C26.4101 11.8759 26.6729 12.2963 26.4859 12.5668C26.299 12.8373 25.8128 12.74 24.8404 12.5455L22.3088 12.0392C22.2111 12.0197 22.1622 12.0099 22.1127 12.0099C22.0632 12.0099 22.0143 12.0197 21.9166 12.0392L19.385 12.5455C18.4126 12.74 17.9264 12.8373 17.7395 12.5668C17.5525 12.2963 17.8153 11.8759 18.3408 11.035L18.3408 11.035L21.2647 6.3568C21.6453 5.74786 21.8356 5.4434 22.1127 5.4434C22.3898 5.4434 22.5801 5.74786 22.9607 6.3568Z" fill="white"/>
<path d="M26.3086 33.23C26.3087 33.2298 26.3089 33.2295 26.309 33.2293L26.3291 33.1972C26.5743 32.8049 26.7871 32.4645 26.9096 32.1876C27.0293 31.9173 27.1509 31.5159 26.8972 31.1489C26.6436 30.7819 26.2251 30.7538 25.93 30.7703C25.6276 30.7871 25.234 30.8658 24.7804 30.9566L24.7424 30.9642L22.2108 31.4705C22.1583 31.481 22.1326 31.486 22.1139 31.489C22.1135 31.4891 22.1131 31.4891 22.1127 31.4892C22.1123 31.4891 22.1119 31.4891 22.1115 31.489C22.0928 31.486 22.0671 31.481 22.0146 31.4705L19.483 30.9642L19.445 30.9566C18.9914 30.8658 18.5978 30.7871 18.2954 30.7703C18.0003 30.7538 17.5818 30.7819 17.3282 31.1489C17.0745 31.5159 17.1961 31.9173 17.3158 32.1876C17.4383 32.4645 17.6511 32.8049 17.8963 33.1972L17.9168 33.23L20.8407 37.9082C20.8469 37.9182 20.8531 37.9281 20.8593 37.938C21.0335 38.2167 21.1929 38.4719 21.347 38.6526C21.5117 38.8458 21.7552 39.0566 22.1127 39.0566C22.4702 39.0566 22.7137 38.8458 22.8784 38.6526C23.0325 38.4719 23.1919 38.2167 23.3661 37.938C23.3723 37.9281 23.3785 37.9182 23.3847 37.9082L26.3086 33.23Z" fill="black" stroke="black" stroke-linejoin="round"/>
<path d="M21.2647 37.6432L18.3408 32.965C17.8153 32.1241 17.5525 31.7037 17.7395 31.4332C17.9264 31.1627 18.4126 31.26 19.385 31.4545L21.9166 31.9608C22.0143 31.9803 22.0632 31.9901 22.1127 31.9901C22.1622 31.9901 22.2111 31.9803 22.3088 31.9608L24.8404 31.4545C25.8128 31.26 26.299 31.1627 26.4859 31.4332C26.6729 31.7037 26.4101 32.1241 25.8846 32.965L25.8846 32.965L22.9607 37.6432C22.5801 38.2521 22.3898 38.5566 22.1127 38.5566C21.8356 38.5566 21.6453 38.2521 21.2647 37.6432Z" fill="white"/>
<circle cx="14.4375" cy="14.4375" r="14.4375" transform="matrix(0 -1 -1 0 36.5502 36.4375)" fill="url(#paint0_radial_1556_172)"/>
<g clip-path="url(#clip0_1556_172)">
<circle cx="5.5" cy="5.5" r="5.5" transform="matrix(0 -1 -1 0 27.1127 28)" fill="black"/>
<circle cx="4" cy="4" r="4" transform="matrix(0 -1 -1 0 25.6127 26.5)" fill="white"/>
</g>
<defs>
<radialGradient id="paint0_radial_1556_172" cx="0" cy="0" r="1" gradientUnits="userSpaceOnUse" gradientTransform="translate(14.4375 14.4375) rotate(-90) scale(14.4375)">
<stop stop-color="white" stop-opacity="0"/>
<stop offset="0.62" stop-color="white" stop-opacity="0.02"/>
<stop offset="1" stop-color="white" stop-opacity="0.15"/>
</radialGradient>
<clipPath id="clip0_1556_172">
<rect width="11" height="11" fill="white" transform="matrix(0 1 -1 0 27.1127 17)"/>
</clipPath>
</defs>
</svg>
